<svg width="43" height="17" viewBox="0 0 43 17" fill="none" xmlns="http://www.w3.org/2000/svg">
<path d="M28.6533 16.228C26.9823 16.228 25.4783 15.9217 24.1415 15.309C22.8047 14.6406 21.6071 13.8886 20.5488 13.0531C19.4905 12.2176 18.46 11.4934 17.4574 10.8807C16.4548 10.2123 15.3965 9.87812 14.2824 9.87812C13.5026 9.87812 12.7507 10.1288 12.0266 10.6301C11.3024 11.1314 10.6062 11.8834 9.93777 12.886C9.26936 13.8886 8.6845 15.1697 8.18319 16.7293L0.830665 13.3037C2.6131 8.95906 4.67403 5.86765 7.01347 4.02952C9.40861 2.13569 11.8873 1.18878 14.4495 1.18878C16.1763 1.18878 17.6802 1.52298 18.9613 2.19139C20.2981 2.8041 21.4957 3.52821 22.554 4.36373C23.6123 5.19924 24.6428 5.95121 25.6454 6.61962C26.648 7.23233 27.7064 7.53868 28.8204 7.53868C29.6559 7.53868 30.4079 7.28803 31.0763 6.78672C31.8004 6.28541 32.4966 5.53345 33.1651 4.53083C33.8335 3.52821 34.4183 2.24709 34.9196 0.687467L42.2722 4.11307C40.5454 8.45775 38.4845 11.577 36.0894 13.4708C33.7499 15.309 31.2712 16.228 28.6533 16.228Z" fill="#4EACF9"/>
</svg>
