<?xml version="1.0" encoding="UTF-8" standalone="no"?><!DOCTYPE svg PUBLIC "-//W3C//DTD SVG 1.1//EN" "http://www.w3.org/Graphics/SVG/1.1/DTD/svg11.dtd"><svg width="100%" height="100%" viewBox="0 0 12500 20834" version="1.1" xmlns="http://www.w3.org/2000/svg" xmlns:xlink="http://www.w3.org/1999/xlink" xml:space="preserve" xmlns:serif="http://www.serif.com/" style="fill-rule:evenodd;clip-rule:evenodd;stroke-linejoin:round;stroke-miterlimit:2;"><g><g><g transform="matrix(1,0,0,0.921925,-2.84217e-14,-9.62829)"><text x="993.864px" y="16948.8px" style="font-family:'Arial-BoldMT', 'Arial', sans-serif;font-weight:700;font-size:1837.81px;fill:#7d25ff;">BSW</text></g><g transform="matrix(1,0,0,0.91492,0,262.3)"><text x="6514.66px" y="16759.6px" style="font-family:'Avenir-Light', 'Avenir', sans-serif;font-weight:300;font-size:1899.89px;fill:#c622d6;">TECH</text></g></g><g><g><path d="M4618.9,8485.59c7.489,-13.631 -11.755,47.45 -17.961,57.569c-27.497,44.834 -56.923,107.138 -85.958,152.296c-75.698,117.731 -103.228,263.875 -191.611,373.411c-239.64,296.994 -197.542,811.923 -148.283,1035.66c21.119,95.918 39.142,305.926 66.066,400.973c46.946,165.724 4.332,177.385 65.173,338.368c38.779,102.609 435.399,914.186 435.399,914.186c-0,0 197.099,413.705 365.395,603.496c48.597,54.804 118.452,112.809 236.339,180.184c92.059,52.615 201.989,95.85 310.616,109.318c2.944,0.365 1329.55,-1.619 1329.55,-1.619c-0,-0 -2334.95,-4120.47 -2366.9,-4189.64" style="fill:url(#_Linear1);"/><path d="M5056.58,6330.43l756.783,0.117c-13.873,28.522 -1323.05,2296.99 -1509.95,2952.74c-148.185,519.919 -111.785,1106.16 107.702,1618.29c102.753,239.757 330.608,856.494 330.608,856.494l-1106.54,-1933.84c-0,-0 -52.351,-899.869 -5.604,-1203.73c102.276,-664.795 462.549,-1217.59 836.763,-1761.9c155.949,-226.835 233.678,-341.733 458.424,-491.563c11.943,-7.962 56.772,-33.878 127.912,-36.164c1.243,-0.039 3.894,-0.456 3.894,-0.456Z" style="fill:url(#_Radial2);"/><path d="M5056.66,6330.46c0,0 -646.921,-5.264 -713.925,2.524c-83.096,9.659 -156.927,11.121 -279.718,97.794c-109.945,77.605 -151.282,171.507 -203.837,270.26c-37.531,70.523 -764.969,1416.72 -805.626,1490.4c-52.863,95.795 -56.607,210.669 -60.847,305.623c-3.723,83.383 56.549,315.536 127.231,439.667c59.154,103.886 202.335,351.5 202.335,351.5l385.671,663.31c0,-0 -135.129,-593.118 -11.4,-977.238c196.743,-610.789 1360.12,-2643.84 1360.12,-2643.84Z" style="fill:url(#_Linear3);"/></g><g><path d="M7658.06,8047.07c-7.426,13.665 11.533,-47.505 17.691,-57.652c27.288,-44.963 56.422,-107.403 85.245,-152.696c75.147,-118.084 101.994,-264.355 189.864,-374.303c238.249,-298.111 193.745,-812.838 143.44,-1036.34c-21.567,-95.818 -40.571,-305.74 -67.94,-400.659c-47.72,-165.504 -5.16,-177.363 -66.753,-338.06c-39.259,-102.427 -439.668,-912.141 -439.668,-912.141c0,-0 -199.031,-412.78 -368.212,-601.781c-48.853,-54.577 -118.978,-112.255 -237.178,-179.078c-92.305,-52.184 -202.435,-94.904 -311.125,-107.865c-2.945,-0.351 -1329.53,7.835 -1329.53,7.835c0,-0 2354.19,4109.51 2386.46,4178.53" style="fill:url(#_Linear4);"/><path d="M7230.45,10204.3l-756.775,3.421c13.739,-28.586 1312.3,-2303.15 1496.13,-2959.77c145.753,-520.606 106.613,-1106.67 -115.266,-1617.77c-103.872,-239.274 -334.608,-854.939 -334.608,-854.939l1115.56,1928.65c-0,-0 56.557,899.614 11.23,1203.69c-99.167,665.266 -456.852,1219.73 -828.517,1765.79c-154.887,227.562 -232.079,342.821 -456.121,493.701c-11.907,8.018 -56.614,34.143 -127.743,36.761c-1.242,0.046 -3.891,0.474 -3.891,0.474Z" style="fill:url(#_Radial5);"/><path d="M7230.38,10204.2c0,-0 646.939,2.24 713.906,-5.862c83.05,-10.047 156.873,-11.854 279.258,-99.1c109.581,-78.118 150.479,-172.212 202.571,-271.21c37.201,-70.698 758.338,-1420.28 798.651,-1494.15c52.414,-96.04 55.621,-210.931 59.417,-305.903c3.334,-83.4 -58.023,-315.269 -129.284,-439.068c-59.639,-103.608 -203.976,-350.55 -203.976,-350.55l-388.768,-661.5c-0,0 137.901,592.479 15.968,977.173c-193.885,611.703 -1347.74,2650.17 -1347.74,2650.17Z" style="fill:url(#_Linear6);"/></g></g></g><defs><linearGradient id="_Linear1" x1="0" y1="0" x2="1" y2="0" gradientUnits="userSpaceOnUse" gradientTransform="matrix(2044.29,3866.32,-3866.32,2044.29,4092.49,8818.92)"><stop offset="0" style="stop-color:#430058;stop-opacity:1"/><stop offset="1" style="stop-color:#e93ecb;stop-opacity:1"/></linearGradient><radialGradient id="_Radial2" cx="0" cy="0" r="1" gradientUnits="userSpaceOnUse" gradientTransform="matrix(800.648,3550.14,-3550.14,800.648,3767.83,6402.88)"><stop offset="0" style="stop-color:#b111a7;stop-opacity:1"/><stop offset="1" style="stop-color:#db2dd1;stop-opacity:1"/></radialGradient><linearGradient id="_Linear3" x1="0" y1="0" x2="1" y2="0" gradientUnits="userSpaceOnUse" gradientTransform="matrix(1447.86,-2831.41,2831.41,1447.86,3256.22,9173.17)"><stop offset="0" style="stop-color:#c119b6;stop-opacity:1"/><stop offset="1" style="stop-color:#a50b9c;stop-opacity:1"/></linearGradient><linearGradient id="_Linear4" x1="0" y1="0" x2="1" y2="0" gradientUnits="userSpaceOnUse" gradientTransform="matrix(-2062.34,-3856.72,3856.72,-2062.34,8182.91,7711.29)"><stop offset="0" style="stop-color:#3e017a;stop-opacity:1"/><stop offset="1" style="stop-color:#8f00ff;stop-opacity:1"/></linearGradient><radialGradient id="_Radial5" cx="0" cy="0" r="1" gradientUnits="userSpaceOnUse" gradientTransform="matrix(-817.235,-3546.36,3546.36,-817.235,8518.86,10125.8)"><stop offset="0" style="stop-color:#c134fd;stop-opacity:1"/><stop offset="1" style="stop-color:#d025ff;stop-opacity:1"/></radialGradient><linearGradient id="_Linear6" x1="0" y1="0" x2="1" y2="0" gradientUnits="userSpaceOnUse" gradientTransform="matrix(-1434.61,2838.14,-2838.14,-1434.61,9017.51,7353.13)"><stop offset="0" style="stop-color:#b02bfd;stop-opacity:1"/><stop offset="1" style="stop-color:#af34f8;stop-opacity:1"/></linearGradient></defs></svg>